# xmcd CD database file
#
# Track frame offsets:
#	150
#	34675
#	77867
#	113556
#	152005
#	182791
#	235257
#	318370
#
# Disc length: 4656 seconds
#
# Revision: 0
# Processed by: cddbd v1.5.1PL2 Copyright (c) Steve Scherf et al.
# Submitted via: CDex 1.51
#
DISCID=5a122e08
DTITLE=Tony Scott and Franco D'Andrea - Homage to Billie Holiday -Body and Soul
DYEAR=1995
DGENRE=Jazz
TTITLE0=The Man I Love
TTITLE1=Prelude to a Kiss
TTITLE2=I Got it Bad And That Ain't Goog
TTITLE3=Lady Sings The Blues
TTITLE4=Israel
TTITLE5=God Bless The Child
TTITLE6=Body And Soul
TTITLE7=God Bless The Child (II)
EXTD=YEAR: 1995
EXTT0=
EXTT1=
EXTT2=
EXTT3=
EXTT4=
EXTT5=
EXTT6=
EXTT7=
PLAYORDER=
